<?xml version="1.0" standalone="no"?>
<!DOCTYPE svg PUBLIC "-//W3C//DTD SVG 20010904//EN"
 "http://www.w3.org/TR/2001/REC-SVG-20010904/DTD/svg10.dtd">
<svg version="1.0" xmlns="http://www.w3.org/2000/svg"
 width="1516.000000pt" height="1516.000000pt" viewBox="0 0 1516.000000 1516.000000"
 preserveAspectRatio="xMidYMid meet">
<metadata>
Created by potrace 1.14, written by Peter Selinger 2001-2017
</metadata>
<g transform="translate(0.000000,1516.000000) scale(0.100000,-0.100000)"
fill="#000000" stroke="none">
<path d="M12739 12687 c-2 -3 -47 -8 -99 -12 -145 -11 -216 -19 -280 -30 -8
-1 -40 -6 -70 -10 -30 -4 -64 -9 -75 -11 -11 -2 -47 -9 -80 -14 -203 -35 -449
-101 -585 -157 -8 -3 -19 -7 -25 -9 -33 -9 -455 -170 -535 -203 -25 -11 -76
-31 -115 -46 -38 -15 -83 -33 -100 -40 -16 -7 -86 -36 -155 -63 -69 -27 -192
-78 -275 -112 -82 -34 -215 -89 -295 -122 -80 -33 -158 -65 -175 -73 -152 -67
-907 -377 -910 -373 -1 2 -17 29 -35 62 -64 113 -131 158 -212 141 -85 -19
-343 -111 -434 -155 -165 -80 -224 -86 -404 -41 -63 16 -251 64 -417 106 -166
42 -310 77 -320 79 -10 2 -99 25 -198 49 -100 25 -192 48 -205 51 -14 3 -99
23 -190 46 -91 23 -172 43 -180 45 -8 2 -118 29 -245 60 -126 31 -237 58 -245
60 -8 2 -127 31 -265 65 -137 33 -261 63 -274 66 -30 6 -360 87 -401 99 -5 1
-52 12 -85 20 -11 3 -85 21 -165 41 -80 19 -152 37 -160 39 -8 2 -116 29 -240
60 -262 66 -285 70 -405 68 -63 -1 -107 -7 -148 -22 -57 -20 -197 -105 -197
-120 0 -7 366 -191 2320 -1166 558 -279 1016 -508 1018 -510 6 -6 -49 -31
-183 -83 -127 -50 -411 -164 -450 -182 -11 -5 -168 -68 -350 -140 -181 -72
-339 -135 -350 -140 -11 -5 -45 -19 -75 -30 -30 -11 -64 -25 -75 -30 -11 -5
-45 -19 -75 -31 -30 -11 -68 -27 -85 -34 -45 -20 -307 -122 -411 -160 -134
-49 -172 -44 -349 45 -133 66 -334 170 -530 275 -49 26 -128 68 -175 93 -170
90 -233 125 -668 376 -139 80 -165 90 -195 74 -10 -5 -26 -11 -35 -13 -9 -2
-91 -33 -182 -70 -91 -37 -173 -70 -183 -74 -15 -6 -6 -26 68 -156 47 -82 85
-150 85 -151 0 -1 36 -63 80 -138 44 -76 80 -138 80 -140 0 -2 23 -43 51 -92
80 -139 90 -155 122 -214 17 -30 41 -72 54 -92 13 -21 23 -40 23 -44 0 -9 -64
0 -251 36 -270 51 -358 70 -484 102 -94 24 -141 31 -220 31 -115 0 -175 -15
-308 -76 -98 -45 -99 -48 -14 -93 29 -14 75 -39 102 -54 28 -15 75 -41 105
-57 30 -17 213 -115 405 -218 193 -103 373 -200 400 -215 315 -170 296 -158
373 -243 40 -45 92 -103 115 -128 133 -147 254 -294 398 -486 71 -94 141 -181
155 -192 45 -36 102 -28 219 29 56 27 108 58 117 67 17 19 81 216 123 378 75
285 71 280 235 301 25 3 52 7 60 9 8 2 38 7 65 10 28 4 57 8 65 10 8 2 39 7
69 10 30 4 63 8 74 11 10 2 45 6 76 10 31 3 59 8 62 10 3 1 28 6 55 9 27 4 65
10 84 15 19 5 47 11 61 14 157 27 530 151 1129 376 552 208 708 259 1126 374
202 55 548 144 594 152 14 3 32 7 40 9 11 3 57 -62 154 -218 77 -122 163 -258
191 -302 205 -319 563 -906 620 -1017 22 -43 44 -78 50 -78 5 0 39 9 75 20 36
10 106 31 155 46 110 33 150 52 194 96 57 55 66 85 116 373 2 17 7 41 10 55 2
13 7 40 10 60 3 20 8 47 10 60 5 24 30 170 41 235 31 185 66 371 74 385 11 21
54 38 122 50 4 1 30 8 58 15 45 12 57 11 103 -4 l52 -18 105 34 c276 88 360
119 482 178 166 81 188 140 133 357 -20 79 -58 150 -108 202 -60 63 -79 65
-231 27 -203 -53 -326 -106 -531 -230 -54 -33 -101 -59 -103 -57 -3 3 7 66 34
226 9 57 15 90 34 185 11 55 22 110 25 122 6 34 35 80 64 101 14 10 89 44 166
76 77 33 154 65 170 72 70 29 242 101 575 238 195 81 364 151 375 156 20 9
609 252 855 352 460 188 796 406 1084 706 120 124 172 229 163 330 -9 101 -84
200 -169 223 -24 6 -52 13 -63 16 -24 7 -449 15 -456 10z m-21 -187 l37 -1
-35 -18 c-35 -19 -215 -93 -510 -211 -85 -34 -168 -68 -185 -75 -29 -13 -741
-296 -1300 -517 -154 -61 -442 -175 -640 -253 -708 -281 -728 -288 -828 -305
-66 -12 -116 -9 -186 10 -69 18 -76 31 -82 147 -2 24 -1 44 2 47 4 4 174 74
464 191 77 31 154 62 172 70 17 8 34 15 38 15 3 0 25 9 48 19 23 10 249 103
502 206 253 102 479 195 502 206 24 10 46 19 50 19 6 0 142 55 198 80 266 121
754 282 985 325 146 28 185 32 405 40 88 4 161 7 162 8 1 2 96 0 201 -3z
m-5500 -2086 c102 -42 159 -70 150 -75 -7 -4 -206 -87 -443 -184 -236 -97
-443 -183 -460 -190 -16 -7 -55 -23 -85 -35 -30 -12 -68 -28 -85 -35 -29 -13
-710 -293 -975 -401 -74 -31 -148 -62 -165 -69 -143 -64 -326 -117 -495 -144
-36 -6 -74 -13 -85 -15 -12 -2 -48 -7 -80 -11 -33 -4 -68 -9 -77 -11 -9 -1
-48 -5 -85 -9 -37 -3 -84 -8 -103 -11 -58 -8 -315 -13 -339 -7 -27 7 48 41
499 227 157 65 299 124 315 131 17 7 82 34 145 60 63 26 129 53 145 60 17 7
89 37 160 65 72 29 144 58 160 65 17 8 66 28 110 45 44 18 94 38 110 45 17 7
100 41 185 75 85 34 169 67 185 75 17 7 100 40 185 74 85 34 164 66 175 71 11
6 181 75 379 154 330 132 360 142 385 131 14 -7 100 -43 189 -81z"/>
<path d="M3989 7200 c-1 -3 -3 -754 -4 -1670 -2 -1659 -2 -1665 -23 -1743 -60
-222 -179 -316 -457 -363 -75 -12 -395 -13 -451 0 -11 2 -61 7 -110 11 l-89 6
0 -295 c0 -184 4 -298 10 -304 13 -11 175 -42 300 -56 28 -4 70 -9 95 -12 53
-7 354 -7 396 0 16 3 54 8 84 11 151 18 387 100 495 173 152 102 267 234 343
394 35 76 77 213 87 285 4 27 9 59 13 73 8 36 12 3490 4 3491 -23 4 -692 3
-693 -1z"/>
<path d="M9070 6648 l0 -558 -32 0 c-18 -1 -138 -1 -265 -1 l-233 0 0 -303 0
-303 260 0 c143 0 262 -2 265 -4 2 -3 5 -390 6 -860 1 -785 2 -862 19 -958 46
-254 132 -433 281 -579 49 -49 171 -142 186 -142 4 0 14 -6 22 -13 35 -29 228
-102 326 -122 152 -32 466 -48 590 -31 22 3 65 8 95 11 100 11 295 47 305 56
6 6 10 122 10 305 l0 295 -100 -7 c-55 -3 -104 -9 -108 -11 -21 -12 -377 -11
-452 2 -272 46 -403 155 -452 378 -14 62 -16 180 -17 875 -1 709 0 802 14 803
8 0 224 1 480 2 l465 2 1 290 c0 160 -2 295 -4 302 -3 9 -110 12 -435 12 -238
0 -452 0 -477 0 l-45 1 0 558 0 557 -353 0 -352 0 0 -557z"/>
<path d="M11339 7192 c-1 -4 -2 -255 -3 -558 l-1 -551 110 1 110 1 5 286 5
286 134 -168 c131 -165 134 -168 172 -167 37 0 41 5 173 170 l136 170 0 -290
0 -290 113 2 112 1 0 550 c1 370 -3 552 -10 557 -26 19 -62 7 -91 -29 -16 -20
-120 -153 -231 -295 l-202 -258 -73 92 c-41 51 -145 183 -231 294 -149 191
-158 201 -192 202 -19 1 -36 -2 -36 -6z"/>
<path d="M12657 7171 c-2 -3 -3 -249 -3 -546 l1 -540 351 -1 351 -1 -1 101 -1
101 -225 2 c-124 1 -231 2 -237 2 -10 1 -13 97 -13 444 l0 443 -110 1 c-61 1
-111 -2 -113 -6z"/>
<path d="M6576 6179 c-276 -39 -593 -169 -809 -333 -146 -111 -316 -302 -393
-441 -63 -114 -87 -164 -122 -245 -39 -94 -78 -211 -88 -265 -3 -16 -7 -31 -9
-35 -2 -4 -7 -29 -11 -56 -3 -27 -8 -52 -10 -55 -7 -12 -18 -167 -17 -249 1
-262 70 -523 208 -795 81 -159 174 -285 304 -416 239 -238 538 -392 894 -460
144 -27 422 -30 543 -5 12 2 39 7 59 10 253 41 582 183 815 354 68 50 255 229
306 293 82 101 150 206 222 341 37 70 39 77 24 91 -9 8 -118 81 -241 163 -179
118 -226 145 -233 134 -173 -298 -323 -462 -546 -594 -467 -275 -989 -234
-1322 106 -54 55 -164 197 -157 204 2 2 440 176 557 221 36 13 74 28 85 33 11
5 128 51 260 103 132 52 249 97 260 102 11 4 25 9 30 11 12 3 867 340 910 358
17 7 56 23 88 36 31 12 57 27 57 34 0 6 -7 43 -16 81 -8 39 -17 79 -19 90 -18
96 -74 253 -131 372 -178 367 -473 623 -865 752 -188 62 -444 86 -633 60z
m282 -609 c194 -33 367 -140 478 -296 43 -60 109 -183 102 -189 -4 -5 -189
-78 -278 -111 -36 -13 -74 -28 -85 -34 -11 -5 -128 -51 -260 -103 -435 -170
-688 -269 -849 -334 -88 -34 -162 -60 -165 -57 -8 8 -7 299 1 359 17 124 85
285 166 393 151 203 354 326 613 371 103 17 177 18 277 1z"/>
</g>
</svg>
